<svg width="24" height="25" viewBox="0 0 24 25" fill="none" xmlns="http://www.w3.org/2000/svg">
  <path d="M18 9.33563C17.5584 9.52763 17.0844 9.65963 16.5864 9.71723C17.0952 9.41723 17.484 8.94203 17.6688 8.37683C17.184 8.65939 16.6549 8.85818 16.104 8.96483C15.8723 8.72192 15.5935 8.52876 15.2846 8.39713C14.9758 8.26551 14.6433 8.19817 14.3076 8.19923C12.948 8.19923 11.8464 9.28523 11.8464 10.6232C11.8464 10.8128 11.868 10.9976 11.91 11.1752C10.9348 11.1289 9.97994 10.8798 9.10638 10.4439C8.23281 10.0079 7.45971 9.39467 6.8364 8.64323C6.61748 9.01175 6.50221 9.43259 6.5028 9.86123C6.5028 10.7012 6.9384 11.4452 7.5984 11.8784C7.20773 11.8662 6.82543 11.7622 6.4824 11.5748V11.6048C6.48611 12.1682 6.68496 12.7128 7.0451 13.1461C7.40524 13.5793 7.9044 13.8743 8.4576 13.9808C8.09443 14.0769 7.71443 14.0908 7.3452 14.0216C7.50615 14.5063 7.81401 14.9288 8.22603 15.2305C8.63805 15.5322 9.13378 15.6981 9.6444 15.7052C8.76836 16.3803 7.69277 16.745 6.5868 16.742C6.3888 16.742 6.1932 16.73 6 16.7084C7.12857 17.4228 8.43716 17.8011 9.7728 17.7992C14.3016 17.7992 16.7772 14.1056 16.7772 10.9016L16.7688 10.5872C17.2516 10.248 17.6687 9.82389 18 9.33563Z" fill="white"/>
  <path d="M5 2.5C4.36348 2.5 3.45009 3.04991 3 3.5C2.54991 3.95009 2 4.66348 2 5.3V19.7C2 20.3365 3 21.5 3 21.5C3 21.5 4.16348 22.5 4.8 22.5H19C19.6365 22.5 20.5499 21.9501 21 21.5C21.4501 21.0499 22 20.3365 22 19.7V5.3C22 4.66348 21.4501 3.95009 21 3.5C20.5499 3.04991 19.6365 2.5 19 2.5H5ZM4.8 0.5H19.2C20.473 0.5 21.6939 1.00571 22.5941 1.90589C23.4943 2.80606 24 4.02696 24 5.3V19.7C24 20.973 23.4943 22.1939 22.5941 23.0941C21.6939 23.9943 20.473 24.5 19.2 24.5H4.8C3.52696 24.5 2.30606 23.9943 1.40589 23.0941C0.505713 22.1939 0 20.973 0 19.7V5.3C0 4.02696 0.505713 2.80606 1.40589 1.90589C2.30606 1.00571 3.52696 0.5 4.8 0.5Z" fill="white"/>
</svg>